<svg preserveAspectRatio="none" xmlns="http://www.w3.org/2000/svg" viewBox="0 0 1440 320"><path fill="#ffffff" fill-opacity="1" d="M0,128L20,128C40,128,80,128,120,160C160,192,200,256,240,250.7C280,245,320,171,360,138.7C400,107,440,117,480,138.7C520,160,560,192,600,176C640,160,680,96,720,74.7C760,53,800,75,840,117.3C880,160,920,224,960,224C1000,224,1040,160,1080,154.7C1120,149,1160,203,1200,213.3C1240,224,1280,192,1320,170.7C1360,149,1400,139,1420,133.3L1440,128L1440,320L1420,320C1400,320,1360,320,1320,320C1280,320,1240,320,1200,320C1160,320,1120,320,1080,320C1040,320,1000,320,960,320C920,320,880,320,840,320C800,320,760,320,720,320C680,320,640,320,600,320C560,320,520,320,480,320C440,320,400,320,360,320C320,320,280,320,240,320C200,320,160,320,120,320C80,320,40,320,20,320L0,320Z"></path></svg>